<mxfile host="app.diagrams.net" modified="2024-06-26T23:27:10.674Z" agent="Mozilla/5.0 (X11; Linux x86_64) AppleWebKit/537.36 (KHTML, like Gecko) Chrome/126.0.0.0 Safari/537.36" etag="zU2cnzFrdQoMBNhmWRiX" version="24.6.3" type="github">
  <diagram name="Page-1" id="XbU9uv-gT49JRMq13AD1">
    <mxGraphModel dx="2284" dy="789" grid="1" gridSize="10" guides="1" tooltips="1" connect="1" arrows="1" fold="1" page="1" pageScale="1" pageWidth="850" pageHeight="1100" math="0" shadow="0">
      <root>
        <mxCell id="0" />
        <mxCell id="1" parent="0" />
        <mxCell id="QcqR4PCK8s3Ke5xRTZmC-41" style="edgeStyle=orthogonalEdgeStyle;rounded=1;orthogonalLoop=1;jettySize=auto;html=1;exitX=1;exitY=0.5;exitDx=0;exitDy=0;entryX=0;entryY=0.5;entryDx=0;entryDy=0;curved=0;endArrow=none;endFill=0;" edge="1" parent="1" source="QcqR4PCK8s3Ke5xRTZmC-2" target="QcqR4PCK8s3Ke5xRTZmC-40">
          <mxGeometry relative="1" as="geometry" />
        </mxCell>
        <mxCell id="QcqR4PCK8s3Ke5xRTZmC-42" style="edgeStyle=orthogonalEdgeStyle;rounded=1;orthogonalLoop=1;jettySize=auto;html=1;exitX=1;exitY=0.5;exitDx=0;exitDy=0;entryX=0;entryY=0.5;entryDx=0;entryDy=0;curved=0;endArrow=none;endFill=0;" edge="1" parent="1" source="QcqR4PCK8s3Ke5xRTZmC-2" target="QcqR4PCK8s3Ke5xRTZmC-38">
          <mxGeometry relative="1" as="geometry" />
        </mxCell>
        <mxCell id="QcqR4PCK8s3Ke5xRTZmC-43" style="edgeStyle=orthogonalEdgeStyle;rounded=1;orthogonalLoop=1;jettySize=auto;html=1;exitX=1;exitY=0.5;exitDx=0;exitDy=0;entryX=0;entryY=0.5;entryDx=0;entryDy=0;curved=0;endArrow=none;endFill=0;" edge="1" parent="1" source="QcqR4PCK8s3Ke5xRTZmC-2" target="QcqR4PCK8s3Ke5xRTZmC-36">
          <mxGeometry relative="1" as="geometry" />
        </mxCell>
        <mxCell id="QcqR4PCK8s3Ke5xRTZmC-44" style="edgeStyle=orthogonalEdgeStyle;rounded=1;orthogonalLoop=1;jettySize=auto;html=1;exitX=1;exitY=0.5;exitDx=0;exitDy=0;entryX=0;entryY=0.5;entryDx=0;entryDy=0;curved=0;endArrow=none;endFill=0;" edge="1" parent="1" source="QcqR4PCK8s3Ke5xRTZmC-2" target="QcqR4PCK8s3Ke5xRTZmC-37">
          <mxGeometry relative="1" as="geometry" />
        </mxCell>
        <mxCell id="QcqR4PCK8s3Ke5xRTZmC-45" style="edgeStyle=orthogonalEdgeStyle;rounded=1;orthogonalLoop=1;jettySize=auto;html=1;exitX=1;exitY=0.5;exitDx=0;exitDy=0;entryX=0;entryY=0.5;entryDx=0;entryDy=0;curved=0;endArrow=none;endFill=0;" edge="1" parent="1" source="QcqR4PCK8s3Ke5xRTZmC-2" target="QcqR4PCK8s3Ke5xRTZmC-39">
          <mxGeometry relative="1" as="geometry" />
        </mxCell>
        <mxCell id="QcqR4PCK8s3Ke5xRTZmC-2" value="sistema_mont" style="whiteSpace=wrap;html=1;align=center;" vertex="1" parent="1">
          <mxGeometry x="860" y="560" width="100" height="40" as="geometry" />
        </mxCell>
        <mxCell id="QcqR4PCK8s3Ke5xRTZmC-34" style="edgeStyle=orthogonalEdgeStyle;rounded=1;orthogonalLoop=1;jettySize=auto;html=1;exitX=1;exitY=0.5;exitDx=0;exitDy=0;entryX=0;entryY=0.5;entryDx=0;entryDy=0;curved=0;endArrow=none;endFill=0;startArrow=ERoneToMany;startFill=0;" edge="1" parent="1" source="QcqR4PCK8s3Ke5xRTZmC-3" target="QcqR4PCK8s3Ke5xRTZmC-33">
          <mxGeometry relative="1" as="geometry" />
        </mxCell>
        <mxCell id="QcqR4PCK8s3Ke5xRTZmC-54" style="edgeStyle=orthogonalEdgeStyle;rounded=1;orthogonalLoop=1;jettySize=auto;html=1;exitX=0.5;exitY=1;exitDx=0;exitDy=0;curved=0;endArrow=none;endFill=0;" edge="1" parent="1" source="QcqR4PCK8s3Ke5xRTZmC-3" target="QcqR4PCK8s3Ke5xRTZmC-51">
          <mxGeometry relative="1" as="geometry" />
        </mxCell>
        <mxCell id="QcqR4PCK8s3Ke5xRTZmC-3" value="monte" style="whiteSpace=wrap;html=1;align=center;" vertex="1" parent="1">
          <mxGeometry x="220" y="560" width="100" height="40" as="geometry" />
        </mxCell>
        <mxCell id="QcqR4PCK8s3Ke5xRTZmC-22" style="edgeStyle=orthogonalEdgeStyle;rounded=1;orthogonalLoop=1;jettySize=auto;html=1;exitX=1;exitY=0.5;exitDx=0;exitDy=0;entryX=0;entryY=0.5;entryDx=0;entryDy=0;curved=0;endArrow=none;endFill=0;" edge="1" parent="1" source="QcqR4PCK8s3Ke5xRTZmC-4" target="QcqR4PCK8s3Ke5xRTZmC-19">
          <mxGeometry relative="1" as="geometry" />
        </mxCell>
        <mxCell id="QcqR4PCK8s3Ke5xRTZmC-27" style="edgeStyle=orthogonalEdgeStyle;rounded=1;orthogonalLoop=1;jettySize=auto;html=1;exitX=1;exitY=0.5;exitDx=0;exitDy=0;entryX=0;entryY=0.5;entryDx=0;entryDy=0;curved=0;endArrow=none;endFill=0;" edge="1" parent="1" source="QcqR4PCK8s3Ke5xRTZmC-4" target="QcqR4PCK8s3Ke5xRTZmC-25">
          <mxGeometry relative="1" as="geometry" />
        </mxCell>
        <mxCell id="QcqR4PCK8s3Ke5xRTZmC-29" style="edgeStyle=orthogonalEdgeStyle;rounded=1;orthogonalLoop=1;jettySize=auto;html=1;exitX=1;exitY=0.5;exitDx=0;exitDy=0;entryX=0;entryY=0.5;entryDx=0;entryDy=0;curved=0;endArrow=none;endFill=0;" edge="1" parent="1" source="QcqR4PCK8s3Ke5xRTZmC-4" target="QcqR4PCK8s3Ke5xRTZmC-23">
          <mxGeometry relative="1" as="geometry" />
        </mxCell>
        <mxCell id="QcqR4PCK8s3Ke5xRTZmC-30" style="edgeStyle=orthogonalEdgeStyle;rounded=1;orthogonalLoop=1;jettySize=auto;html=1;exitX=1;exitY=0.5;exitDx=0;exitDy=0;entryX=0;entryY=0.5;entryDx=0;entryDy=0;curved=0;endArrow=none;endFill=0;" edge="1" parent="1" source="QcqR4PCK8s3Ke5xRTZmC-4" target="QcqR4PCK8s3Ke5xRTZmC-26">
          <mxGeometry relative="1" as="geometry" />
        </mxCell>
        <mxCell id="QcqR4PCK8s3Ke5xRTZmC-32" style="edgeStyle=orthogonalEdgeStyle;rounded=1;orthogonalLoop=1;jettySize=auto;html=1;exitX=1;exitY=0.5;exitDx=0;exitDy=0;entryX=0;entryY=0.5;entryDx=0;entryDy=0;curved=0;endArrow=none;endFill=0;" edge="1" parent="1" source="QcqR4PCK8s3Ke5xRTZmC-4" target="QcqR4PCK8s3Ke5xRTZmC-24">
          <mxGeometry relative="1" as="geometry" />
        </mxCell>
        <mxCell id="QcqR4PCK8s3Ke5xRTZmC-4" value="provincia" style="whiteSpace=wrap;html=1;align=center;" vertex="1" parent="1">
          <mxGeometry x="860" y="160" width="100" height="40" as="geometry" />
        </mxCell>
        <mxCell id="QcqR4PCK8s3Ke5xRTZmC-12" style="edgeStyle=orthogonalEdgeStyle;rounded=1;orthogonalLoop=1;jettySize=auto;html=1;exitX=0.5;exitY=0;exitDx=0;exitDy=0;entryX=0.5;entryY=1;entryDx=0;entryDy=0;curved=0;endArrow=none;endFill=0;" edge="1" parent="1" source="QcqR4PCK8s3Ke5xRTZmC-5" target="QcqR4PCK8s3Ke5xRTZmC-9">
          <mxGeometry relative="1" as="geometry" />
        </mxCell>
        <mxCell id="QcqR4PCK8s3Ke5xRTZmC-13" style="edgeStyle=orthogonalEdgeStyle;rounded=1;orthogonalLoop=1;jettySize=auto;html=1;exitX=0.5;exitY=0;exitDx=0;exitDy=0;entryX=0.5;entryY=1;entryDx=0;entryDy=0;curved=0;endArrow=none;endFill=0;" edge="1" parent="1" source="QcqR4PCK8s3Ke5xRTZmC-5" target="QcqR4PCK8s3Ke5xRTZmC-7">
          <mxGeometry relative="1" as="geometry" />
        </mxCell>
        <mxCell id="QcqR4PCK8s3Ke5xRTZmC-14" style="edgeStyle=orthogonalEdgeStyle;rounded=1;orthogonalLoop=1;jettySize=auto;html=1;exitX=0.5;exitY=0;exitDx=0;exitDy=0;entryX=0.5;entryY=1;entryDx=0;entryDy=0;curved=0;endArrow=none;endFill=0;" edge="1" parent="1" source="QcqR4PCK8s3Ke5xRTZmC-5" target="QcqR4PCK8s3Ke5xRTZmC-10">
          <mxGeometry relative="1" as="geometry" />
        </mxCell>
        <mxCell id="QcqR4PCK8s3Ke5xRTZmC-15" style="edgeStyle=orthogonalEdgeStyle;rounded=1;orthogonalLoop=1;jettySize=auto;html=1;exitX=0.5;exitY=0;exitDx=0;exitDy=0;entryX=0.5;entryY=1;entryDx=0;entryDy=0;curved=0;endArrow=none;endFill=0;" edge="1" parent="1" source="QcqR4PCK8s3Ke5xRTZmC-5" target="QcqR4PCK8s3Ke5xRTZmC-11">
          <mxGeometry relative="1" as="geometry" />
        </mxCell>
        <mxCell id="QcqR4PCK8s3Ke5xRTZmC-17" style="edgeStyle=orthogonalEdgeStyle;rounded=1;orthogonalLoop=1;jettySize=auto;html=1;exitX=1;exitY=0.5;exitDx=0;exitDy=0;entryX=0;entryY=0.5;entryDx=0;entryDy=0;curved=0;endArrow=none;endFill=0;startArrow=ERoneToMany;startFill=0;" edge="1" parent="1" source="QcqR4PCK8s3Ke5xRTZmC-5" target="QcqR4PCK8s3Ke5xRTZmC-16">
          <mxGeometry relative="1" as="geometry" />
        </mxCell>
        <mxCell id="QcqR4PCK8s3Ke5xRTZmC-5" value="rio" style="whiteSpace=wrap;html=1;align=center;" vertex="1" parent="1">
          <mxGeometry x="220" y="160" width="100" height="40" as="geometry" />
        </mxCell>
        <mxCell id="QcqR4PCK8s3Ke5xRTZmC-7" value="codigo_rio" style="ellipse;whiteSpace=wrap;html=1;align=center;fontStyle=4;" vertex="1" parent="1">
          <mxGeometry x="160" y="80" width="100" height="40" as="geometry" />
        </mxCell>
        <mxCell id="QcqR4PCK8s3Ke5xRTZmC-9" value="nombre" style="ellipse;whiteSpace=wrap;html=1;align=center;" vertex="1" parent="1">
          <mxGeometry x="40" y="80" width="100" height="40" as="geometry" />
        </mxCell>
        <mxCell id="QcqR4PCK8s3Ke5xRTZmC-10" value="descripcion" style="ellipse;whiteSpace=wrap;html=1;align=center;" vertex="1" parent="1">
          <mxGeometry x="280" y="80" width="100" height="40" as="geometry" />
        </mxCell>
        <mxCell id="QcqR4PCK8s3Ke5xRTZmC-11" value="longitud" style="ellipse;whiteSpace=wrap;html=1;align=center;" vertex="1" parent="1">
          <mxGeometry x="400" y="80" width="100" height="40" as="geometry" />
        </mxCell>
        <mxCell id="QcqR4PCK8s3Ke5xRTZmC-18" style="edgeStyle=orthogonalEdgeStyle;rounded=1;orthogonalLoop=1;jettySize=auto;html=1;exitX=1;exitY=0.5;exitDx=0;exitDy=0;entryX=0;entryY=0.5;entryDx=0;entryDy=0;curved=0;endArrow=ERzeroToMany;endFill=0;" edge="1" parent="1" source="QcqR4PCK8s3Ke5xRTZmC-16" target="QcqR4PCK8s3Ke5xRTZmC-4">
          <mxGeometry relative="1" as="geometry" />
        </mxCell>
        <mxCell id="QcqR4PCK8s3Ke5xRTZmC-21" style="edgeStyle=orthogonalEdgeStyle;rounded=1;orthogonalLoop=1;jettySize=auto;html=1;exitX=0.5;exitY=1;exitDx=0;exitDy=0;entryX=0.5;entryY=0;entryDx=0;entryDy=0;curved=0;endArrow=none;endFill=0;" edge="1" parent="1" source="QcqR4PCK8s3Ke5xRTZmC-16" target="QcqR4PCK8s3Ke5xRTZmC-20">
          <mxGeometry relative="1" as="geometry" />
        </mxCell>
        <mxCell id="QcqR4PCK8s3Ke5xRTZmC-16" value="atraviesa" style="shape=rhombus;perimeter=rhombusPerimeter;whiteSpace=wrap;html=1;align=center;" vertex="1" parent="1">
          <mxGeometry x="530" y="150" width="120" height="60" as="geometry" />
        </mxCell>
        <mxCell id="QcqR4PCK8s3Ke5xRTZmC-19" value="codigo_provincia" style="ellipse;whiteSpace=wrap;html=1;align=center;fontStyle=4;" vertex="1" parent="1">
          <mxGeometry x="1000" y="160" width="100" height="40" as="geometry" />
        </mxCell>
        <mxCell id="QcqR4PCK8s3Ke5xRTZmC-20" value="longitud_tramo" style="ellipse;whiteSpace=wrap;html=1;align=center;" vertex="1" parent="1">
          <mxGeometry x="540" y="250" width="100" height="40" as="geometry" />
        </mxCell>
        <mxCell id="QcqR4PCK8s3Ke5xRTZmC-23" value="num_habitantes" style="ellipse;whiteSpace=wrap;html=1;align=center;" vertex="1" parent="1">
          <mxGeometry x="1000" y="40" width="100" height="40" as="geometry" />
        </mxCell>
        <mxCell id="QcqR4PCK8s3Ke5xRTZmC-24" value="comunidad" style="ellipse;whiteSpace=wrap;html=1;align=center;" vertex="1" parent="1">
          <mxGeometry x="1000" y="280" width="100" height="40" as="geometry" />
        </mxCell>
        <mxCell id="QcqR4PCK8s3Ke5xRTZmC-25" value="nombre" style="ellipse;whiteSpace=wrap;html=1;align=center;" vertex="1" parent="1">
          <mxGeometry x="1000" y="100" width="100" height="40" as="geometry" />
        </mxCell>
        <mxCell id="QcqR4PCK8s3Ke5xRTZmC-26" value="capital" style="ellipse;whiteSpace=wrap;html=1;align=center;" vertex="1" parent="1">
          <mxGeometry x="1000" y="220" width="100" height="40" as="geometry" />
        </mxCell>
        <mxCell id="QcqR4PCK8s3Ke5xRTZmC-35" style="edgeStyle=orthogonalEdgeStyle;rounded=1;orthogonalLoop=1;jettySize=auto;html=1;exitX=1;exitY=0.5;exitDx=0;exitDy=0;entryX=0;entryY=0.5;entryDx=0;entryDy=0;curved=0;endArrow=ERzeroToOne;endFill=0;" edge="1" parent="1" source="QcqR4PCK8s3Ke5xRTZmC-33" target="QcqR4PCK8s3Ke5xRTZmC-2">
          <mxGeometry relative="1" as="geometry" />
        </mxCell>
        <mxCell id="QcqR4PCK8s3Ke5xRTZmC-33" value="compone" style="shape=rhombus;perimeter=rhombusPerimeter;whiteSpace=wrap;html=1;align=center;" vertex="1" parent="1">
          <mxGeometry x="530" y="550" width="120" height="60" as="geometry" />
        </mxCell>
        <mxCell id="QcqR4PCK8s3Ke5xRTZmC-36" value="codigo_sistema" style="ellipse;whiteSpace=wrap;html=1;align=center;fontStyle=4;" vertex="1" parent="1">
          <mxGeometry x="1000" y="560" width="100" height="40" as="geometry" />
        </mxCell>
        <mxCell id="QcqR4PCK8s3Ke5xRTZmC-37" value="orientacion" style="ellipse;whiteSpace=wrap;html=1;align=center;" vertex="1" parent="1">
          <mxGeometry x="1000" y="620" width="100" height="40" as="geometry" />
        </mxCell>
        <mxCell id="QcqR4PCK8s3Ke5xRTZmC-38" value="nombre" style="ellipse;whiteSpace=wrap;html=1;align=center;" vertex="1" parent="1">
          <mxGeometry x="1000" y="500" width="100" height="40" as="geometry" />
        </mxCell>
        <mxCell id="QcqR4PCK8s3Ke5xRTZmC-39" value="altura_max" style="ellipse;whiteSpace=wrap;html=1;align=center;" vertex="1" parent="1">
          <mxGeometry x="1000" y="680" width="100" height="40" as="geometry" />
        </mxCell>
        <mxCell id="QcqR4PCK8s3Ke5xRTZmC-40" value="longitud" style="ellipse;whiteSpace=wrap;html=1;align=center;" vertex="1" parent="1">
          <mxGeometry x="1000" y="440" width="100" height="40" as="geometry" />
        </mxCell>
        <mxCell id="QcqR4PCK8s3Ke5xRTZmC-48" style="edgeStyle=orthogonalEdgeStyle;rounded=1;orthogonalLoop=1;jettySize=auto;html=1;exitX=1;exitY=0.5;exitDx=0;exitDy=0;entryX=0;entryY=0.5;entryDx=0;entryDy=0;curved=0;endArrow=none;endFill=0;startArrow=ERmandOne;startFill=0;" edge="1" parent="1" source="QcqR4PCK8s3Ke5xRTZmC-46" target="QcqR4PCK8s3Ke5xRTZmC-47">
          <mxGeometry relative="1" as="geometry" />
        </mxCell>
        <mxCell id="QcqR4PCK8s3Ke5xRTZmC-46" value="satelite" style="whiteSpace=wrap;html=1;align=center;" vertex="1" parent="1">
          <mxGeometry x="-100" y="340" width="100" height="40" as="geometry" />
        </mxCell>
        <mxCell id="QcqR4PCK8s3Ke5xRTZmC-49" style="edgeStyle=orthogonalEdgeStyle;rounded=1;orthogonalLoop=1;jettySize=auto;html=1;exitX=1;exitY=0.5;exitDx=0;exitDy=0;entryX=0.5;entryY=1;entryDx=0;entryDy=0;curved=0;endArrow=ERzeroToMany;endFill=0;" edge="1" parent="1" source="QcqR4PCK8s3Ke5xRTZmC-47" target="QcqR4PCK8s3Ke5xRTZmC-5">
          <mxGeometry relative="1" as="geometry" />
        </mxCell>
        <mxCell id="QcqR4PCK8s3Ke5xRTZmC-50" style="edgeStyle=orthogonalEdgeStyle;rounded=1;orthogonalLoop=1;jettySize=auto;html=1;exitX=1;exitY=0.5;exitDx=0;exitDy=0;entryX=0.5;entryY=0;entryDx=0;entryDy=0;curved=0;endArrow=ERzeroToMany;endFill=0;" edge="1" parent="1" source="QcqR4PCK8s3Ke5xRTZmC-47" target="QcqR4PCK8s3Ke5xRTZmC-3">
          <mxGeometry relative="1" as="geometry" />
        </mxCell>
        <mxCell id="QcqR4PCK8s3Ke5xRTZmC-81" style="edgeStyle=orthogonalEdgeStyle;rounded=1;orthogonalLoop=1;jettySize=auto;html=1;exitX=0.5;exitY=0;exitDx=0;exitDy=0;entryX=0.5;entryY=1;entryDx=0;entryDy=0;curved=0;endArrow=none;endFill=0;" edge="1" parent="1" source="QcqR4PCK8s3Ke5xRTZmC-47" target="QcqR4PCK8s3Ke5xRTZmC-80">
          <mxGeometry relative="1" as="geometry" />
        </mxCell>
        <mxCell id="QcqR4PCK8s3Ke5xRTZmC-47" value="monitorea" style="shape=rhombus;perimeter=rhombusPerimeter;whiteSpace=wrap;html=1;align=center;" vertex="1" parent="1">
          <mxGeometry x="80" y="330" width="120" height="60" as="geometry" />
        </mxCell>
        <mxCell id="QcqR4PCK8s3Ke5xRTZmC-55" style="edgeStyle=orthogonalEdgeStyle;rounded=1;orthogonalLoop=1;jettySize=auto;html=1;exitX=0.5;exitY=1;exitDx=0;exitDy=0;exitPerimeter=0;entryX=0.5;entryY=0;entryDx=0;entryDy=0;endArrow=none;endFill=0;curved=0;" edge="1" parent="1" source="QcqR4PCK8s3Ke5xRTZmC-51" target="QcqR4PCK8s3Ke5xRTZmC-53">
          <mxGeometry relative="1" as="geometry" />
        </mxCell>
        <mxCell id="QcqR4PCK8s3Ke5xRTZmC-56" style="edgeStyle=orthogonalEdgeStyle;rounded=1;orthogonalLoop=1;jettySize=auto;html=1;exitX=0.5;exitY=1;exitDx=0;exitDy=0;exitPerimeter=0;entryX=0.5;entryY=0;entryDx=0;entryDy=0;curved=0;endArrow=none;endFill=0;" edge="1" parent="1" source="QcqR4PCK8s3Ke5xRTZmC-51" target="QcqR4PCK8s3Ke5xRTZmC-52">
          <mxGeometry relative="1" as="geometry" />
        </mxCell>
        <mxCell id="QcqR4PCK8s3Ke5xRTZmC-51" value="" style="strokeWidth=2;html=1;shape=mxgraph.flowchart.merge_or_storage;whiteSpace=wrap;" vertex="1" parent="1">
          <mxGeometry x="231.25" y="640" width="77.5" height="40" as="geometry" />
        </mxCell>
        <mxCell id="QcqR4PCK8s3Ke5xRTZmC-52" value="plegamiento" style="whiteSpace=wrap;html=1;align=center;" vertex="1" parent="1">
          <mxGeometry x="300" y="720" width="100" height="40" as="geometry" />
        </mxCell>
        <mxCell id="QcqR4PCK8s3Ke5xRTZmC-53" value="volcanico" style="whiteSpace=wrap;html=1;align=center;" vertex="1" parent="1">
          <mxGeometry x="140" y="720" width="100" height="40" as="geometry" />
        </mxCell>
        <mxCell id="QcqR4PCK8s3Ke5xRTZmC-58" style="edgeStyle=orthogonalEdgeStyle;rounded=0;orthogonalLoop=1;jettySize=auto;html=1;exitX=0.5;exitY=0;exitDx=0;exitDy=0;entryX=0.5;entryY=1;entryDx=0;entryDy=0;endArrow=ERzeroToMany;endFill=0;" edge="1" parent="1" source="QcqR4PCK8s3Ke5xRTZmC-57" target="QcqR4PCK8s3Ke5xRTZmC-4">
          <mxGeometry relative="1" as="geometry" />
        </mxCell>
        <mxCell id="QcqR4PCK8s3Ke5xRTZmC-59" style="edgeStyle=orthogonalEdgeStyle;rounded=0;orthogonalLoop=1;jettySize=auto;html=1;exitX=0.5;exitY=1;exitDx=0;exitDy=0;entryX=0.5;entryY=0;entryDx=0;entryDy=0;endArrow=ERoneToMany;endFill=0;" edge="1" parent="1" source="QcqR4PCK8s3Ke5xRTZmC-57" target="QcqR4PCK8s3Ke5xRTZmC-2">
          <mxGeometry relative="1" as="geometry" />
        </mxCell>
        <mxCell id="QcqR4PCK8s3Ke5xRTZmC-57" value="ocupa" style="shape=rhombus;perimeter=rhombusPerimeter;whiteSpace=wrap;html=1;align=center;" vertex="1" parent="1">
          <mxGeometry x="850" y="350" width="120" height="60" as="geometry" />
        </mxCell>
        <mxCell id="QcqR4PCK8s3Ke5xRTZmC-69" style="edgeStyle=orthogonalEdgeStyle;rounded=1;orthogonalLoop=1;jettySize=auto;html=1;exitX=1;exitY=0.5;exitDx=0;exitDy=0;entryX=0;entryY=0.5;entryDx=0;entryDy=0;curved=0;endArrow=none;endFill=0;" edge="1" parent="1" source="QcqR4PCK8s3Ke5xRTZmC-61" target="QcqR4PCK8s3Ke5xRTZmC-3">
          <mxGeometry relative="1" as="geometry" />
        </mxCell>
        <mxCell id="QcqR4PCK8s3Ke5xRTZmC-61" value="codigo_monte" style="ellipse;whiteSpace=wrap;html=1;align=center;fontStyle=4;" vertex="1" parent="1">
          <mxGeometry x="80" y="530" width="100" height="40" as="geometry" />
        </mxCell>
        <mxCell id="QcqR4PCK8s3Ke5xRTZmC-68" style="edgeStyle=orthogonalEdgeStyle;rounded=1;orthogonalLoop=1;jettySize=auto;html=1;exitX=1;exitY=0.5;exitDx=0;exitDy=0;entryX=0;entryY=0.5;entryDx=0;entryDy=0;curved=0;endArrow=none;endFill=0;" edge="1" parent="1" source="QcqR4PCK8s3Ke5xRTZmC-63" target="QcqR4PCK8s3Ke5xRTZmC-3">
          <mxGeometry relative="1" as="geometry" />
        </mxCell>
        <mxCell id="QcqR4PCK8s3Ke5xRTZmC-63" value="descripcion" style="ellipse;whiteSpace=wrap;html=1;align=center;" vertex="1" parent="1">
          <mxGeometry x="80" y="590" width="100" height="40" as="geometry" />
        </mxCell>
        <mxCell id="QcqR4PCK8s3Ke5xRTZmC-70" style="edgeStyle=orthogonalEdgeStyle;rounded=1;orthogonalLoop=1;jettySize=auto;html=1;exitX=1;exitY=0.5;exitDx=0;exitDy=0;entryX=0;entryY=0.5;entryDx=0;entryDy=0;curved=0;endArrow=none;endFill=0;" edge="1" parent="1" source="QcqR4PCK8s3Ke5xRTZmC-64" target="QcqR4PCK8s3Ke5xRTZmC-3">
          <mxGeometry relative="1" as="geometry" />
        </mxCell>
        <mxCell id="QcqR4PCK8s3Ke5xRTZmC-64" value="nombre" style="ellipse;whiteSpace=wrap;html=1;align=center;" vertex="1" parent="1">
          <mxGeometry x="80" y="470" width="100" height="40" as="geometry" />
        </mxCell>
        <mxCell id="QcqR4PCK8s3Ke5xRTZmC-71" style="edgeStyle=orthogonalEdgeStyle;rounded=1;orthogonalLoop=1;jettySize=auto;html=1;exitX=1;exitY=0.5;exitDx=0;exitDy=0;entryX=0;entryY=0.5;entryDx=0;entryDy=0;curved=0;endArrow=none;endFill=0;" edge="1" parent="1" source="QcqR4PCK8s3Ke5xRTZmC-65" target="QcqR4PCK8s3Ke5xRTZmC-3">
          <mxGeometry relative="1" as="geometry" />
        </mxCell>
        <mxCell id="QcqR4PCK8s3Ke5xRTZmC-65" value="altura" style="ellipse;whiteSpace=wrap;html=1;align=center;" vertex="1" parent="1">
          <mxGeometry x="80" y="650" width="100" height="40" as="geometry" />
        </mxCell>
        <mxCell id="QcqR4PCK8s3Ke5xRTZmC-73" style="edgeStyle=orthogonalEdgeStyle;rounded=1;orthogonalLoop=1;jettySize=auto;html=1;exitX=0.5;exitY=0;exitDx=0;exitDy=0;entryX=0.5;entryY=1;entryDx=0;entryDy=0;curved=0;endArrow=none;endFill=0;" edge="1" parent="1" source="QcqR4PCK8s3Ke5xRTZmC-66" target="QcqR4PCK8s3Ke5xRTZmC-52">
          <mxGeometry relative="1" as="geometry" />
        </mxCell>
        <mxCell id="QcqR4PCK8s3Ke5xRTZmC-66" value="periodo_geologico" style="ellipse;whiteSpace=wrap;html=1;align=center;" vertex="1" parent="1">
          <mxGeometry x="300" y="800" width="100" height="40" as="geometry" />
        </mxCell>
        <mxCell id="QcqR4PCK8s3Ke5xRTZmC-72" style="edgeStyle=orthogonalEdgeStyle;rounded=1;orthogonalLoop=1;jettySize=auto;html=1;exitX=0.5;exitY=0;exitDx=0;exitDy=0;entryX=0.5;entryY=1;entryDx=0;entryDy=0;curved=0;endArrow=none;endFill=0;" edge="1" parent="1" source="QcqR4PCK8s3Ke5xRTZmC-67" target="QcqR4PCK8s3Ke5xRTZmC-53">
          <mxGeometry relative="1" as="geometry" />
        </mxCell>
        <mxCell id="QcqR4PCK8s3Ke5xRTZmC-67" value="tipo_volcan" style="ellipse;whiteSpace=wrap;html=1;align=center;" vertex="1" parent="1">
          <mxGeometry x="140" y="800" width="100" height="40" as="geometry" />
        </mxCell>
        <mxCell id="QcqR4PCK8s3Ke5xRTZmC-78" style="edgeStyle=orthogonalEdgeStyle;rounded=1;orthogonalLoop=1;jettySize=auto;html=1;exitX=1;exitY=0.5;exitDx=0;exitDy=0;entryX=0;entryY=0.5;entryDx=0;entryDy=0;curved=0;endArrow=none;endFill=0;" edge="1" parent="1" source="QcqR4PCK8s3Ke5xRTZmC-74" target="QcqR4PCK8s3Ke5xRTZmC-46">
          <mxGeometry relative="1" as="geometry" />
        </mxCell>
        <mxCell id="QcqR4PCK8s3Ke5xRTZmC-74" value="id_satelite" style="ellipse;whiteSpace=wrap;html=1;align=center;fontStyle=4;" vertex="1" parent="1">
          <mxGeometry x="-250" y="340" width="100" height="40" as="geometry" />
        </mxCell>
        <mxCell id="QcqR4PCK8s3Ke5xRTZmC-77" style="edgeStyle=orthogonalEdgeStyle;rounded=1;orthogonalLoop=1;jettySize=auto;html=1;exitX=1;exitY=0.5;exitDx=0;exitDy=0;entryX=0;entryY=0.5;entryDx=0;entryDy=0;curved=0;endArrow=none;endFill=0;" edge="1" parent="1" source="QcqR4PCK8s3Ke5xRTZmC-75" target="QcqR4PCK8s3Ke5xRTZmC-46">
          <mxGeometry relative="1" as="geometry" />
        </mxCell>
        <mxCell id="QcqR4PCK8s3Ke5xRTZmC-75" value="nombre" style="ellipse;whiteSpace=wrap;html=1;align=center;" vertex="1" parent="1">
          <mxGeometry x="-250" y="280" width="100" height="40" as="geometry" />
        </mxCell>
        <mxCell id="QcqR4PCK8s3Ke5xRTZmC-79" style="edgeStyle=orthogonalEdgeStyle;rounded=1;orthogonalLoop=1;jettySize=auto;html=1;exitX=1;exitY=0.5;exitDx=0;exitDy=0;entryX=0;entryY=0.5;entryDx=0;entryDy=0;curved=0;endArrow=none;endFill=0;" edge="1" parent="1" source="QcqR4PCK8s3Ke5xRTZmC-76" target="QcqR4PCK8s3Ke5xRTZmC-46">
          <mxGeometry relative="1" as="geometry" />
        </mxCell>
        <mxCell id="QcqR4PCK8s3Ke5xRTZmC-76" value="descripcion" style="ellipse;whiteSpace=wrap;html=1;align=center;" vertex="1" parent="1">
          <mxGeometry x="-250" y="400" width="100" height="40" as="geometry" />
        </mxCell>
        <mxCell id="QcqR4PCK8s3Ke5xRTZmC-80" value="fecha_inicio" style="ellipse;whiteSpace=wrap;html=1;align=center;" vertex="1" parent="1">
          <mxGeometry x="90" y="250" width="100" height="40" as="geometry" />
        </mxCell>
      </root>
    </mxGraphModel>
  </diagram>
</mxfile>
